<svg width="30" height="30" viewBox="0 0 30 30" fill="none" xmlns="http://www.w3.org/2000/svg">
<path d="M21.4407 23.363V23.3583C20.7308 23.0574 20.1252 22.5543 19.6993 21.9117C19.2733 21.269 19.0459 20.5152 19.0454 19.7442C19.0453 18.9625 19.2787 18.1986 19.7157 17.5505V17.5458C19.8328 17.3641 19.8842 17.1477 19.8611 16.9328C19.8381 16.7178 19.7421 16.5173 19.5891 16.3645C19.3479 16.1262 19.0928 15.9024 18.8251 15.6942C18.2245 15.2231 17.5601 14.8395 16.8517 14.5551C17.5359 14.0122 18.0886 13.3217 18.4685 12.5352C18.8483 11.7486 19.0456 10.8864 19.0454 10.013C19.0429 8.47464 18.4307 7.00002 17.343 5.91226C16.2552 4.8245 14.7806 4.21232 13.2423 4.20984C11.704 4.21232 10.2293 4.8245 9.14158 5.91226C8.05382 7.00002 7.44163 8.47464 7.43916 10.013C7.4388 10.8869 7.63641 11.7496 8.01717 12.5363C8.39792 13.323 8.95193 14.0132 9.63759 14.5551C8.09023 15.1839 6.7653 16.2595 5.83189 17.6446C4.89848 19.0297 4.39892 20.6615 4.39697 22.3317V24.6098C4.39771 24.8582 4.49672 25.0963 4.67237 25.2719C4.84803 25.4476 5.08606 25.5466 5.33447 25.5473H21.1454C21.3289 25.5486 21.5085 25.4947 21.661 25.3927C21.7907 25.3073 21.8971 25.1911 21.9707 25.0544C22.0443 24.9178 22.0829 24.765 22.0829 24.6098V24.2536C22.0831 24.0565 22.0211 23.8643 21.9058 23.7044C21.7905 23.5445 21.6278 23.425 21.4407 23.363Z" fill="#80A9DA"/>
<path d="M24.8397 18.8058H23.9074V17.872C23.9074 17.6234 23.8086 17.3849 23.6328 17.2091C23.457 17.0333 23.2185 16.9345 22.9699 16.9345C22.7212 16.9345 22.4828 17.0333 22.307 17.2091C22.1311 17.3849 22.0324 17.6234 22.0324 17.872V18.8043H21.0986C20.85 18.8043 20.6115 18.9031 20.4357 19.0789C20.2599 19.2547 20.1611 19.4932 20.1611 19.7418C20.1611 19.9905 20.2599 20.2289 20.4357 20.4048C20.6115 20.5806 20.85 20.6793 21.0986 20.6793H22.0305V21.6112C22.0305 21.8599 22.1293 22.0983 22.3051 22.2741C22.4809 22.45 22.7194 22.5487 22.968 22.5487C23.2166 22.5487 23.4551 22.45 23.6309 22.2741C23.8067 22.0983 23.9055 21.8599 23.9055 21.6112V20.6793H24.8378C25.0865 20.6793 25.3249 20.5806 25.5007 20.4048C25.6766 20.2289 25.7753 19.9905 25.7753 19.7418C25.775 19.4938 25.6763 19.256 25.5009 19.0805C25.3255 18.905 25.0878 18.8063 24.8397 18.8058Z" fill="#2754A5"/>
</svg>
